# xmcd
#
# Track frame offsets: 
#        150
#        21420
#        41066
#        59186
#        76564
#        94131
#        117430
#        136226
#        155295
#        175379
#        192262
#        210017
#
# Disc length: 3155 seconds
#
# Revision: 0
# Processed by: cddbd v1.5.2PL0 Copyright (c) Steve Scherf et al.
# Submitted via: ExactAudioCopy v0.99pb4
#
DISCID=9d0c510c
DTITLE=The Union  - The Union 
DYEAR=2010
DGENRE=Blues Rock
TTITLE0=Watch The River Flow 
TTITLE1=Easy Street 
TTITLE2=Saviour 
TTITLE3=Step Up To The Plate 
TTITLE4=Holy Roller 
TTITLE5=You Know My Name 
TTITLE6=Come Rain Come Shine 
TTITLE7=Black Monday 
TTITLE8=Amazon 
TTITLE9=This Time Next Year 
TTITLE10=Lillies 
TTITLE11=The Space Between Us
EXTD=
EXTT0=
EXTT1=
EXTT2=
EXTT3=
EXTT4=
EXTT5=
EXTT6=
EXTT7=
EXTT8=
EXTT9=
EXTT10=
EXTT11=
PLAYORDER=
